<?xml version="1.0" encoding="UTF-8" standalone="no"?>
<!-- Created with Inkscape (http://www.inkscape.org/) -->

<svg
   xmlns:dc="http://purl.org/dc/elements/1.1/"
   xmlns:cc="http://creativecommons.org/ns#"
   xmlns:rdf="http://www.w3.org/1999/02/22-rdf-syntax-ns#"
   xmlns:svg="http://www.w3.org/2000/svg"
   xmlns="http://www.w3.org/2000/svg"
   xmlns:sodipodi="http://sodipodi.sourceforge.net/DTD/sodipodi-0.dtd"
   xmlns:inkscape="http://www.inkscape.org/namespaces/inkscape"
   id="svg2"
   version="1.1"
   inkscape:version="0.48.3.1 r9886"
   width="625"
   height="625"
   xml:space="preserve"
   sodipodi:docname="mehua.svg"><title
     id="title3029">Mēhua logo</title><metadata
     id="metadata8"><rdf:RDF><cc:Work
         rdf:about=""><dc:format>image/svg+xml</dc:format><dc:type
           rdf:resource="http://purl.org/dc/dcmitype/StillImage" /><dc:title>Mēhua logo</dc:title><cc:license
           rdf:resource="" /><dc:date>2012-09-10</dc:date><dc:creator><cc:Agent><dc:title>Wilson Rodrigues Verneque Neto</dc:title></cc:Agent></dc:creator><dc:rights><cc:Agent><dc:title>Maximilian Ott</dc:title></cc:Agent></dc:rights><dc:contributor><cc:Agent><dc:title>Wilson Rodrigues Verneque Neto</dc:title></cc:Agent></dc:contributor></cc:Work></rdf:RDF></metadata><defs
     id="defs6"><clipPath
       clipPathUnits="userSpaceOnUse"
       id="clipPath16"><path
         d="M 0,500 500,500 500,0 0,0 0,500 z"
         id="path18" /></clipPath></defs><sodipodi:namedview
     pagecolor="#ffffff"
     bordercolor="#666666"
     borderopacity="1"
     objecttolerance="10"
     gridtolerance="10"
     guidetolerance="10"
     inkscape:pageopacity="0"
     inkscape:pageshadow="2"
     inkscape:window-width="1062"
     inkscape:window-height="716"
     id="namedview4"
     showgrid="false"
     inkscape:zoom="0.3776"
     inkscape:cx="-64.883475"
     inkscape:cy="312.5"
     inkscape:window-x="1516"
     inkscape:window-y="380"
     inkscape:window-maximized="0"
     inkscape:current-layer="g10" /><g
     id="g10"
     inkscape:groupmode="layer"
     inkscape:label="mehua_ok"
     transform="matrix(1.25,0,0,-1.25,0,625)"><g
       id="g12"><g
         id="g14"
         clip-path="url(#clipPath16)"><g
           id="g20"
           transform="translate(368.3574,352.2197)"><path
             d="m 0,0 c -45.684,0 -85.287,-26.488 -104.285,-64.908 l 18.647,0 c 17.489,29.049 49.33,48.523 85.638,48.523 46.422,0 85.549,-31.831 96.702,-74.814 5.589,0.048 11.173,0.185 16.757,0.383 C 101.818,-38.907 55.37,0 0,0"
             style="fill:#96989b;fill-opacity:1;fill-rule:nonzero;stroke:none"
             id="path22" /></g><g
           id="g24"
           transform="translate(156.5376,262.1455)"><path
             d="M 0,0 C 1.369,0 2.719,-0.17 4.042,-0.504 3.198,-1.336 2.254,-2.263 1.206,-3.289 c -2.441,-2.396 -4.979,-4.91 -7.613,-7.542 l -9.876,-9.879 c -0.306,1.253 -0.461,2.541 -0.461,3.849 0,4.691 1.632,8.601 4.986,11.957 2.681,2.679 5.702,4.225 9.231,4.722 C -1.676,-0.061 -0.826,0 0,0 m 24.785,7.584 c -3.384,3.383 -7.265,5.961 -11.537,7.661 -8.497,3.378 -17.614,3.376 -26.102,0 -4.27,-1.698 -8.152,-4.276 -11.536,-7.661 -3.392,-3.389 -5.946,-7.252 -7.596,-11.48 -1.637,-4.194 -2.466,-8.557 -2.466,-12.965 0,-4.406 0.829,-8.789 2.462,-13.026 1.649,-4.276 4.206,-8.167 7.599,-11.56 3.282,-3.284 7.079,-5.833 11.286,-7.574 4.205,-1.747 8.682,-2.631 13.302,-2.631 4.619,0 9.094,0.884 13.3,2.631 4.208,1.741 8.005,4.29 11.288,7.574 l 6.244,6.244 -12.632,12.634 -6.243,-6.247 c -2.689,-2.687 -5.718,-4.258 -9.261,-4.8 -2.26,-0.346 -4.439,-0.259 -6.552,0.265 L 31.029,1.34 24.785,7.584 z"
             style="fill:#96989b;fill-opacity:1;fill-rule:nonzero;stroke:none"
             id="path26" /></g><g
           id="g28"
           transform="translate(249.3779,270.1035)"><path
             d="m 0,0 c -3.175,3.122 -6.882,5.611 -11.022,7.401 -4.175,1.804 -8.735,2.716 -13.55,2.716 -3.902,0 -7.678,-0.626 -11.228,-1.86 -1.949,-0.678 -3.81,-1.518 -5.571,-2.515 l 0,30.172 -17.851,0 0,-95.238 17.851,0 0,34.792 c 0,2.313 0.436,4.507 1.299,6.521 0.87,2.03 2.087,3.834 3.615,5.363 1.531,1.529 3.335,2.746 5.365,3.616 2.01,0.862 4.205,1.298 6.52,1.298 2.32,0 4.544,-0.439 6.608,-1.306 2.068,-0.869 3.891,-2.084 5.417,-3.607 1.53,-1.534 2.747,-3.338 3.617,-5.364 0.861,-2.014 1.297,-4.208 1.297,-6.521 l 0,-34.792 17.853,0 0,34.792 c 0,4.815 -0.914,9.374 -2.717,13.551 C 5.709,-6.832 3.186,-3.138 0,0"
             style="fill:#96989b;fill-opacity:1;fill-rule:nonzero;stroke:none"
             id="path30" /></g><g
           id="g32"
           transform="translate(314.2578,245.5713)"><path
             d="m 0,0 c 0,-2.322 -0.439,-4.545 -1.306,-6.608 -0.87,-2.07 -2.083,-3.893 -3.608,-5.418 -1.523,-1.526 -3.347,-2.739 -5.417,-3.608 -2.065,-0.866 -4.288,-1.306 -6.609,-1.306 -2.316,0 -4.511,0.436 -6.521,1.298 -2.031,0.871 -3.837,2.086 -5.364,3.616 -1.524,1.523 -2.737,3.345 -3.608,5.419 -0.866,2.062 -1.306,4.285 -1.306,6.607 l 0,34.649 -17.851,0 0,-34.649 c 0,-4.722 0.912,-9.254 2.711,-13.467 1.79,-4.196 4.281,-7.931 7.406,-11.105 3.137,-3.19 6.86,-5.714 11.064,-7.507 4.214,-1.799 8.744,-2.713 13.469,-2.713 4.821,0 9.379,0.914 13.548,2.717 4.148,1.791 7.862,4.309 11.039,7.487 3.18,3.182 5.701,6.921 7.493,11.121 1.798,4.219 2.713,8.75 2.713,13.467 l 0,34.649 L 0,34.649 0,0 z"
             style="fill:#96989b;fill-opacity:1;fill-rule:nonzero;stroke:none"
             id="path34" /></g><g
           id="g36"
           transform="translate(386.4844,228.6309)"><path
             d="m 0,0 -16.798,0 c -2.321,0 -4.546,0.44 -6.608,1.307 -2.074,0.869 -3.897,2.082 -5.42,3.607 -1.522,1.523 -2.736,3.344 -3.607,5.419 -0.865,2.063 -1.306,4.285 -1.306,6.607 0,2.314 0.437,4.507 1.299,6.521 0.871,2.031 2.087,3.835 3.616,5.365 1.524,1.524 3.347,2.738 5.418,3.607 2.062,0.866 4.287,1.305 6.608,1.305 2.314,0 4.508,-0.436 6.519,-1.3 2.027,-0.866 3.833,-2.084 5.364,-3.612 C -3.386,27.294 -2.17,25.489 -1.3,23.461 -0.437,21.449 0,19.257 0,16.94 L 0,0 z M 7.717,41.459 C 7.005,42.17 6.26,42.844 5.491,43.489 L 27.208,118.032 -7.256,50.287 c -3.032,0.859 -6.223,1.302 -9.542,1.302 -4.718,0 -9.249,-0.912 -13.468,-2.711 -4.195,-1.79 -7.931,-4.281 -11.105,-7.407 -3.188,-3.137 -5.713,-6.831 -7.502,-10.979 -1.804,-4.171 -2.718,-8.73 -2.718,-13.552 0,-4.721 0.913,-9.253 2.712,-13.466 1.789,-4.199 4.312,-7.94 7.492,-11.12 1.015,-1.015 2.093,-1.955 3.219,-2.833 l -10.103,-19.861 28.843,-11.707 7.049,24.195 30.231,0 0,34.792 c 0,4.818 -0.915,9.377 -2.717,13.552 -1.791,4.146 -4.286,7.835 -7.418,10.967"
             style="fill:#373535;fill-opacity:1;fill-rule:nonzero;stroke:none"
             id="path38" /></g><g
           id="g40"
           transform="translate(88.606,278.394)"><path
             d="M 0,0 C -7.911,0 -15.319,-3.132 -20.729,-8.682 -26.125,-3.132 -33.479,0 -41.307,0 c -15.951,0 -28.93,-12.978 -28.93,-28.929 l 0,-38.686 16.708,0 0,38.686 c 0,6.824 5.483,12.376 12.222,12.376 6.71,0 12.378,-5.669 12.378,-12.376 l 0,-38.686 16.553,0 0,38.686 c 0,6.824 5.55,12.376 12.376,12.376 6.739,0 12.224,-5.552 12.224,-12.376 l 0,-38.686 16.552,0 0,38.686 C 28.776,-12.978 15.866,0 0,0"
             style="fill:#96989b;fill-opacity:1;fill-rule:nonzero;stroke:none"
             id="path42" /></g><path
           d="m 184.82,296.475 -62.734,0 0,-12.832 62.734,0 0,12.832 z"
           style="fill:#006fb7;fill-opacity:1;fill-rule:nonzero;stroke:none"
           id="path44" /><g
           id="g46"
           transform="translate(449.2715,152.4639)"><path
             d="m 0,0 -11.402,11.765 c 1.49,1.445 2.951,2.95 4.34,4.475 L 5.049,5.204 C 3.433,3.432 1.733,1.68 0,0"
             style="fill:#006fb7;fill-opacity:1;fill-rule:nonzero;stroke:none"
             id="path48" /></g><g
           id="g50"
           transform="translate(457.7793,162.3096)"><path
             d="m 0,0 -12.414,10.688 c 3.871,4.499 7.357,9.362 10.358,14.457 L 12.06,16.825 C 8.563,10.895 4.508,5.234 0,0"
             style="fill:#006fb7;fill-opacity:1;fill-rule:nonzero;stroke:none"
             id="path52" /></g><g
           id="g54"
           transform="translate(468.2441,235.1699)"><path
             d="m 0,0 c -0.01,-1.254 -0.051,-2.501 -0.105,-3.747 l 16.35,-1.058 c 0.073,1.554 0.127,3.112 0.139,4.677 l 0.003,0.922 c 0,17.551 -3.815,34.421 -11.339,50.142 L -9.731,43.862 C -3.272,30.367 0.004,15.878 0.004,0.794 L 0,0 z"
             style="fill:#006fb7;fill-opacity:1;fill-rule:nonzero;stroke:none"
             id="path56" /></g><g
           id="g58"
           transform="translate(467.7559,226.0088)"><path
             d="m 0,0 c -1.155,-11.78 -4.36,-23.123 -9.585,-33.82 l 14.722,-7.191 c 5.988,12.261 9.698,25.244 11.097,38.72 L 0,0 z"
             style="fill:#006fb7;fill-opacity:1;fill-rule:nonzero;stroke:none"
             id="path60" /></g></g></g></g></svg>