<?xml version="1.0" encoding="UTF-8" standalone="no"?>
<!-- Created with Inkscape (http://www.inkscape.org/) -->

<svg
   xmlns:dc="http://purl.org/dc/elements/1.1/"
   xmlns:cc="http://creativecommons.org/ns#"
   xmlns:rdf="http://www.w3.org/1999/02/22-rdf-syntax-ns#"
   xmlns:svg="http://www.w3.org/2000/svg"
   xmlns="http://www.w3.org/2000/svg"
   xmlns:sodipodi="http://sodipodi.sourceforge.net/DTD/sodipodi-0.dtd"
   xmlns:inkscape="http://www.inkscape.org/namespaces/inkscape"
   id="svg2"
   version="1.1"
   inkscape:version="0.48.3.1 r9886"
   width="625"
   height="625"
   xml:space="preserve"
   sodipodi:docname="mehua_favicon.svg"><title
     id="title3000">Mēhua favicon</title><metadata
     id="metadata8"><rdf:RDF><cc:Work
         rdf:about=""><dc:format>image/svg+xml</dc:format><dc:type
           rdf:resource="http://purl.org/dc/dcmitype/StillImage" /><dc:title>Mēhua favicon</dc:title><dc:creator><cc:Agent><dc:title>Wilson Rodrigues Verneque Neto</dc:title></cc:Agent></dc:creator><dc:rights><cc:Agent><dc:title>Maximilian Ott</dc:title></cc:Agent></dc:rights><dc:date>2012-09-10</dc:date><dc:contributor><cc:Agent><dc:title>Wilson Rodrigues Verneque Neto</dc:title></cc:Agent></dc:contributor></cc:Work></rdf:RDF></metadata><defs
     id="defs6"><clipPath
       clipPathUnits="userSpaceOnUse"
       id="clipPath16"><path
         d="M 0,500 500,500 500,0 0,0 0,500 z"
         id="path18" /></clipPath></defs><sodipodi:namedview
     pagecolor="#ffffff"
     bordercolor="#666666"
     borderopacity="1"
     objecttolerance="10"
     gridtolerance="10"
     guidetolerance="10"
     inkscape:pageopacity="0"
     inkscape:pageshadow="2"
     inkscape:window-width="1360"
     inkscape:window-height="749"
     id="namedview4"
     showgrid="false"
     inkscape:zoom="0.3776"
     inkscape:cx="-64.883475"
     inkscape:cy="312.5"
     inkscape:window-x="0"
     inkscape:window-y="0"
     inkscape:window-maximized="0"
     inkscape:current-layer="g10" /><g
     id="g10"
     inkscape:groupmode="layer"
     inkscape:label="mehua_ok_favicon"
     transform="matrix(1.25,0,0,-1.25,0,625)"><g
       id="g12"><g
         id="g14"
         clip-path="url(#clipPath16)"><g
           id="g20"
           transform="translate(235.9004,370.7314)"><path
             d="m 0,0 c -52.759,0 -98.496,-30.589 -120.437,-74.959 l 21.536,0 c 20.197,33.549 56.971,56.038 98.901,56.038 53.611,0 98.8,-36.761 111.682,-86.402 6.452,0.055 12.902,0.214 19.349,0.442 C 117.591,-44.932 63.948,0 0,0"
             style="fill:#96989b;fill-opacity:1;fill-rule:nonzero;stroke:none"
             id="path22" /></g><g
           id="g24"
           transform="translate(263.7012,221.1348)"><path
             d="m 0,0 -26.236,0 c -3.628,0 -7.1,0.689 -10.323,2.043 -3.237,1.356 -6.086,3.251 -8.466,5.634 -2.375,2.38 -4.272,5.223 -5.631,8.464 -1.352,3.219 -2.04,6.694 -2.04,10.319 0,3.615 0.683,7.04 2.027,10.187 1.361,3.17 3.264,5.99 5.649,8.378 2.38,2.381 5.229,4.278 8.461,5.634 3.223,1.354 6.695,2.04 10.323,2.04 3.614,0 7.039,-0.683 10.181,-2.032 3.168,-1.354 5.988,-3.256 8.378,-5.642 2.392,-2.393 4.288,-5.213 5.648,-8.378 C -0.681,33.502 0,30.08 0,26.46 L 0,0 z m 23.643,47.626 c -2.801,6.477 -6.697,12.238 -11.59,17.131 -3.095,3.092 -6.54,5.785 -10.294,8.057 L 19.937,135.218 -9.222,77.9 c -5.356,1.772 -11.056,2.681 -17.014,2.681 -7.368,0 -14.447,-1.425 -21.037,-4.236 -6.551,-2.797 -12.388,-6.687 -17.346,-11.57 -4.979,-4.898 -8.922,-10.67 -11.715,-17.149 -2.817,-6.515 -4.247,-13.635 -4.247,-21.166 0,-7.375 1.427,-14.451 4.236,-21.034 2.797,-6.557 6.736,-12.401 11.705,-17.367 2.106,-2.109 4.379,-4.019 6.79,-5.747 l -13.193,-25.933 34.771,-14.116 8.707,29.888 c 0.442,-0.01 0.883,-0.032 1.329,-0.032 l 54.12,0 0,54.341 c 0,7.526 -1.427,14.646 -4.241,21.166"
             style="fill:#373535;fill-opacity:1;fill-rule:nonzero;stroke:none"
             id="path26" /></g><g
           id="g28"
           transform="translate(329.3467,140.04)"><path
             d="m 0,0 -13.167,13.586 c 1.72,1.668 3.406,3.407 5.01,5.169 L 5.829,6.008 C 3.966,3.963 2.004,1.938 0,0"
             style="fill:#006fb7;fill-opacity:1;fill-rule:nonzero;stroke:none"
             id="path30" /></g><g
           id="g32"
           transform="translate(339.1729,151.4092)"><path
             d="m 0,0 -14.337,12.344 c 4.47,5.195 8.495,10.81 11.961,16.697 l 16.305,-9.61 C 9.891,12.583 5.205,6.045 0,0"
             style="fill:#006fb7;fill-opacity:1;fill-rule:nonzero;stroke:none"
             id="path34" /></g><g
           id="g36"
           transform="translate(351.2588,235.5547)"><path
             d="M 0,0 C -0.013,-1.447 -0.06,-2.889 -0.122,-4.326 L 18.76,-5.548 c 0.086,1.793 0.145,3.591 0.161,5.4 l 0.003,1.066 c 0,20.269 -4.404,39.749 -13.095,57.907 L -11.239,50.654 C -3.781,35.07 0.003,18.337 0.003,0.918 L 0,0 z"
             style="fill:#006fb7;fill-opacity:1;fill-rule:nonzero;stroke:none"
             id="path38" /></g><g
           id="g40"
           transform="translate(350.6953,224.9756)"><path
             d="m 0,0 c -1.336,-13.606 -5.036,-26.704 -11.07,-39.059 l 17,-8.304 c 6.918,14.16 11.201,29.154 12.817,44.716 L 0,0 z"
             style="fill:#006fb7;fill-opacity:1;fill-rule:nonzero;stroke:none"
             id="path42" /></g></g></g></g></svg>