<?xml version="1.0" encoding="UTF-8" standalone="no"?>
<!-- Created with Inkscape (http://www.inkscape.org/) -->

<svg
   xmlns:dc="http://purl.org/dc/elements/1.1/"
   xmlns:cc="http://creativecommons.org/ns#"
   xmlns:rdf="http://www.w3.org/1999/02/22-rdf-syntax-ns#"
   xmlns:svg="http://www.w3.org/2000/svg"
   xmlns="http://www.w3.org/2000/svg"
   xmlns:sodipodi="http://sodipodi.sourceforge.net/DTD/sodipodi-0.dtd"
   xmlns:inkscape="http://www.inkscape.org/namespaces/inkscape"
   id="svg2"
   version="1.1"
   inkscape:version="0.48.3.1 r9886"
   width="350"
   height="350"
   xml:space="preserve"
   sodipodi:docname="oml.svg"><title
     id="title3029">OML logo</title><metadata
     id="metadata8"><rdf:RDF><cc:Work
         rdf:about=""><dc:format>image/svg+xml</dc:format><dc:type
           rdf:resource="http://purl.org/dc/dcmitype/StillImage" /><dc:title>OML logo</dc:title><cc:license
           rdf:resource="" /><dc:date>2012-09-10</dc:date><dc:creator><cc:Agent><dc:title>Olivier Mehani5</dc:title></cc:Agent></dc:creator><dc:rights><cc:Agent><dc:title>Maximilian Ott</dc:title></cc:Agent></dc:rights><dc:contributor><cc:Agent><dc:title>Wilson Rodrigues Verneque Neto
Olivier Mehani</dc:title></cc:Agent></dc:contributor></cc:Work></rdf:RDF></metadata><defs
     id="defs6"><clipPath
       clipPathUnits="userSpaceOnUse"
       id="clipPath16"><path
         d="M 0,500 500,500 500,0 0,0 0,500 z"
         id="path18"
         inkscape:connector-curvature="0" /></clipPath></defs><sodipodi:namedview
     pagecolor="#ffffff"
     bordercolor="#666666"
     borderopacity="1"
     objecttolerance="10"
     gridtolerance="10"
     guidetolerance="10"
     inkscape:pageopacity="0"
     inkscape:pageshadow="2"
     inkscape:window-width="1914"
     inkscape:window-height="1181"
     id="namedview4"
     showgrid="false"
     inkscape:zoom="2.3478056"
     inkscape:cx="169.105"
     inkscape:cy="194.86281"
     inkscape:window-x="1366"
     inkscape:window-y="0"
     inkscape:window-maximized="0"
     inkscape:current-layer="g10"
     showguides="true"
     inkscape:guide-bbox="true"
     fit-margin-top="169.1"
     fit-margin-left="0"
     fit-margin-right="0"
     fit-margin-bottom="0"><sodipodi:guide
       orientation="1,0"
       position="-177.32038,183.61802"
       id="guide3065" /></sodipodi:namedview><g
     id="g10"
     inkscape:groupmode="layer"
     inkscape:label="mehua_ok"
     transform="matrix(1.25,0,0,-1.25,-329.89022,538.64577)"><g
       id="g4218"
       transform="translate(1.0222175,-4.6393222e-6)"><g
         transform="matrix(0.25881905,0.96592583,-0.96592583,0.25881905,517.48361,-140.39835)"
         id="g3882"><g
           id="g20"
           transform="translate(368.3574,352.2197)"><path
             d="m 0,0 c -45.684,0 -85.287,-26.488 -104.285,-64.908 l 18.647,0 c 17.489,29.049 49.33,48.523 85.638,48.523 46.422,0 85.549,-31.831 96.702,-74.814 5.589,0.048 11.173,0.185 16.757,0.383 C 101.818,-38.907 55.37,0 0,0"
             style="fill:#96989b;fill-opacity:1;fill-rule:nonzero;stroke:none"
             id="path22"
             inkscape:connector-curvature="0" /></g><g
           id="g46"
           transform="translate(449.2715,152.4639)"><path
             d="m 0,0 -11.402,11.765 c 1.49,1.445 2.951,2.95 4.34,4.475 L 5.049,5.204 C 3.433,3.432 1.733,1.68 0,0"
             style="fill:#006fb7;fill-opacity:1;fill-rule:nonzero;stroke:none"
             id="path48"
             inkscape:connector-curvature="0" /></g><g
           id="g50"
           transform="translate(457.7793,162.3096)"><path
             d="m 0,0 -12.414,10.688 c 3.871,4.499 7.357,9.362 10.358,14.457 L 12.06,16.825 C 8.563,10.895 4.508,5.234 0,0"
             style="fill:#006fb7;fill-opacity:1;fill-rule:nonzero;stroke:none"
             id="path52"
             inkscape:connector-curvature="0" /></g><g
           id="g54"
           transform="translate(468.2441,235.1699)"><path
             d="m 0,0 c -0.01,-1.254 -0.051,-2.501 -0.105,-3.747 l 16.35,-1.058 c 0.073,1.554 0.127,3.112 0.139,4.677 l 0.003,0.922 c 0,17.551 -3.815,34.421 -11.339,50.142 L -9.731,43.862 C -3.272,30.367 0.004,15.878 0.004,0.794 L 0,0 z"
             style="fill:#006fb7;fill-opacity:1;fill-rule:nonzero;stroke:none"
             id="path56"
             inkscape:connector-curvature="0" /></g><g
           id="g58"
           transform="translate(467.7559,226.0088)"><path
             d="m 0,0 c -1.155,-11.78 -4.36,-23.123 -9.585,-33.82 l 14.722,-7.191 c 5.988,12.261 9.698,25.244 11.097,38.72 L 0,0 z"
             style="fill:#006fb7;fill-opacity:1;fill-rule:nonzero;stroke:none"
             id="path60"
             inkscape:connector-curvature="0" /></g><path
           style="fill:#373535;fill-opacity:1;fill-rule:nonzero;stroke:none"
           d="m 517.125,191.65625 c -17.13187,26.41641 -32.02873,54.03415 -45.5625,81.375 -1.70554,-0.20108 -3.43013,-0.3125 -5.1875,-0.3125 -24.14956,0 -43.96875,19.53304 -43.96875,43.34375 0,12.45358 5.43533,23.75485 14.0625,31.6875 -4.62046,10.04338 -9.17704,19.91812 -13.6875,29.375 L 458.8125,391.78125 468.25,359.375 c 23.29064,-0.98132 42.09375,-20.12195 42.09375,-43.3125 0,-14.7316 -7.58896,-27.81006 -19.09375,-35.65625 l 25.875,-88.75 z m -50.71875,103.9375 c 11.53986,0 20.625,8.99706 20.625,20.375 1.5e-4,0.0323 0,0.0615 0,0.0937 -0.003,0.72169 -0.0501,1.42444 -0.125,2.125 -0.0323,0.30231 -0.0485,0.60833 -0.0937,0.90625 -0.0184,0.12661 -0.0418,0.24921 -0.0625,0.375 -0.0905,0.55007 -0.21052,1.0916 -0.34375,1.625 -0.0102,0.041 -0.0208,0.0841 -0.0312,0.125 -0.0749,0.28466 -0.16324,0.56435 -0.25,0.84375 -0.0124,0.041 -0.0186,0.0841 -0.0312,0.125 -0.0883,0.27784 -0.18155,0.54019 -0.28125,0.8125 -0.0147,0.0408 -0.0163,0.0843 -0.0312,0.125 -1.81036,4.9444 -5.48397,8.93647 -10.21875,11.21875 l 0.0312,-0.125 c -2.76335,1.3357 -5.86063,2.09375 -9.1875,2.09375 -8.61931,0 -15.90559,-5.00268 -19.03125,-12.28125 -0.0137,0.0297 -0.0176,0.0641 -0.0312,0.0937 -1.05209,-2.45946 -1.625,-5.19298 -1.625,-8.0625 0,-0.75485 0.0467,-1.48688 0.125,-2.21875 0.0145,-0.13585 0.0453,-0.27127 0.0625,-0.40625 0.0201,-0.16648 0.0385,-0.33487 0.0625,-0.5 0.037,-0.25392 0.0788,-0.49941 0.125,-0.75 0.0239,-0.1253 0.0364,-0.25057 0.0625,-0.375 0.1272,-0.62472 0.28621,-1.24237 0.46875,-1.84375 0.0128,-0.0411 0.0182,-0.084 0.0312,-0.125 0.18633,-0.60007 0.41737,-1.17613 0.65625,-1.75 3.07612,-7.38996 10.39326,-12.5 19.09375,-12.5 z"
           transform="matrix(0.8,0,0,-0.8,0,500)"
           id="path38"
           inkscape:connector-curvature="0" /></g><g
         transform="translate(578.5216,308.22465)"
         id="g28"><path
           sodipodi:nodetypes="cccc"
           inkscape:connector-curvature="0"
           id="path30"
           style="fill:#96989b;fill-opacity:1;fill-rule:nonzero;stroke:none"
           d="m -41.371,35.914 -17.851,0 0,-95.238 17.851,0" /></g><g
         transform="translate(485.8196,316.51515)"
         id="g40"><path
           inkscape:connector-curvature="0"
           id="path42"
           style="fill:#96989b;fill-opacity:1;fill-rule:nonzero;stroke:none"
           d="M 0,0 C -7.911,0 -15.319,-3.132 -20.729,-8.682 -26.125,-3.132 -33.479,0 -41.307,0 c -15.951,0 -28.93,-12.978 -28.93,-28.929 l 0,-38.686 16.708,0 0,38.686 c 0,6.824 5.483,12.376 12.222,12.376 6.71,0 12.378,-5.669 12.378,-12.376 l 0,-38.686 16.553,0 0,38.686 c 0,6.824 5.55,12.376 12.376,12.376 6.739,0 12.224,-5.552 12.224,-12.376 l 0,-38.686 16.552,0 0,38.686 C 28.776,-12.978 15.866,0 0,0" /></g></g></g></svg>