<?xml version="1.0" encoding="UTF-8" standalone="no"?>
<!-- Created with Inkscape (http://www.inkscape.org/) -->

<svg
   xmlns:dc="http://purl.org/dc/elements/1.1/"
   xmlns:cc="http://creativecommons.org/ns#"
   xmlns:rdf="http://www.w3.org/1999/02/22-rdf-syntax-ns#"
   xmlns:svg="http://www.w3.org/2000/svg"
   xmlns="http://www.w3.org/2000/svg"
   xmlns:sodipodi="http://sodipodi.sourceforge.net/DTD/sodipodi-0.dtd"
   xmlns:inkscape="http://www.inkscape.org/namespaces/inkscape"
   id="svg2"
   version="1.1"
   inkscape:version="0.48.3.1 r9886"
   width="350"
   height="350"
   xml:space="preserve"
   sodipodi:docname="oml.svg"
   inkscape:export-filename="/home/omehani/nicta/OML/oml/logo/oml.png"
   inkscape:export-xdpi="118.54285"
   inkscape:export-ydpi="118.54285"><title
     id="title3029">OML logo</title><metadata
     id="metadata8"><rdf:RDF><cc:Work
         rdf:about=""><dc:format>image/svg+xml</dc:format><dc:type
           rdf:resource="http://purl.org/dc/dcmitype/StillImage" /><dc:title>OML logo</dc:title><cc:license
           rdf:resource="" /><dc:date>2012-09-10</dc:date><dc:creator><cc:Agent><dc:title>Olivier Mehani5</dc:title></cc:Agent></dc:creator><dc:rights><cc:Agent><dc:title>Maximilian Ott</dc:title></cc:Agent></dc:rights><dc:contributor><cc:Agent><dc:title>Wilson Rodrigues Verneque Neto
Olivier Mehani</dc:title></cc:Agent></dc:contributor></cc:Work></rdf:RDF></metadata><defs
     id="defs6"><clipPath
       clipPathUnits="userSpaceOnUse"
       id="clipPath16"><path
         d="M 0,500 500,500 500,0 0,0 0,500 z"
         id="path18"
         inkscape:connector-curvature="0" /></clipPath></defs><sodipodi:namedview
     pagecolor="#ffffff"
     bordercolor="#666666"
     borderopacity="1"
     objecttolerance="10"
     gridtolerance="10"
     guidetolerance="10"
     inkscape:pageopacity="0"
     inkscape:pageshadow="2"
     inkscape:window-width="1914"
     inkscape:window-height="1181"
     id="namedview4"
     showgrid="false"
     inkscape:zoom="2.0102036"
     inkscape:cx="34.629954"
     inkscape:cy="142.87714"
     inkscape:window-x="1366"
     inkscape:window-y="0"
     inkscape:window-maximized="0"
     inkscape:current-layer="g10"
     showguides="true"
     inkscape:guide-bbox="true"
     fit-margin-top="169.1"
     fit-margin-left="0"
     fit-margin-right="0"
     fit-margin-bottom="0"><sodipodi:guide
       orientation="1,0"
       position="-177.32038,183.61802"
       id="guide3065" /></sodipodi:namedview><g
     id="g10"
     inkscape:groupmode="layer"
     inkscape:label="mehua_ok"
     transform="matrix(1.25,0,0,-1.25,-329.89022,538.64577)"><path
       style="fill:#96989b;fill-opacity:1;fill-rule:nonzero;stroke:none"
       d="M 43.90625 254.53125 L 26.125 264.5625 C 26.288985 264.85224 26.490296 265.11763 26.65625 265.40625 L 44.4375 255.375 C 44.27144 255.087 44.070027 254.82056 43.90625 254.53125 z "
       id="path3890"
       transform="matrix(0.8,0,0,-0.8,263.91218,430.91662)" /><g
       id="g3933"><g
         id="g3917"><path
           style="fill:#96989b;fill-opacity:1;fill-rule:nonzero;stroke:none"
           d="M 158.5 47.8125 C 92.05855 45.074138 30.069762 88.583362 12.15625 155.4375 C 1.9038192 193.70009 8.0036162 232.54413 26.125 264.5625 L 43.90625 254.53125 C 28.331247 227.01843 23.127625 193.62891 31.9375 160.75 C 46.956125 104.69974 98.025 67.747688 153.53125 68.1875 C 155.28146 61.423775 156.93251 54.618725 158.5 47.8125 z "
           id="path22"
           transform="matrix(0.8,0,0,-0.8,263.91218,430.91662)" /><g
           id="g46"
           transform="matrix(0.25881905,0.96592583,-0.96592583,0.25881905,487.51703,333.02516)"><path
             d="m 0,0 -11.402,11.765 c 1.49,1.445 2.951,2.95 4.34,4.475 L 5.049,5.204 C 3.433,3.432 1.733,1.68 0,0"
             style="fill:#006fb7;fill-opacity:1;fill-rule:nonzero;stroke:none"
             id="path48"
             inkscape:connector-curvature="0" /></g><g
           id="g50"
           transform="matrix(0.25881905,0.96592583,-0.96592583,0.25881905,480.2088,343.79132)"><path
             d="m 0,0 -12.414,10.688 c 3.871,4.499 7.357,9.362 10.358,14.457 L 12.06,16.825 C 8.563,10.895 4.508,5.234 0,0"
             style="fill:#006fb7;fill-opacity:1;fill-rule:nonzero;stroke:none"
             id="path52"
             inkscape:connector-curvature="0" /></g><g
           id="g54"
           transform="matrix(0.25881905,0.96592583,-0.96592583,0.25881905,412.53964,372.75717)"><path
             d="m 0,0 c -0.01,-1.254 -0.051,-2.501 -0.105,-3.747 l 16.35,-1.058 c 0.073,1.554 0.127,3.112 0.139,4.677 l 0.003,0.922 c 0,17.551 -3.815,34.421 -11.339,50.142 L -9.731,43.862 C -3.272,30.367 0.004,15.878 0.004,0.794 L 0,0 z"
             style="fill:#006fb7;fill-opacity:1;fill-rule:nonzero;stroke:none"
             id="path56"
             inkscape:connector-curvature="0" /></g><g
           id="g58"
           transform="matrix(0.25881905,0.96592583,-0.96592583,0.25881905,421.26223,369.91454)"><path
             d="m 0,0 c -1.155,-11.78 -4.36,-23.123 -9.585,-33.82 l 14.722,-7.191 c 5.988,12.261 9.698,25.244 11.097,38.72 L 0,0 z"
             style="fill:#006fb7;fill-opacity:1;fill-rule:nonzero;stroke:none"
             id="path60"
             inkscape:connector-curvature="0" /></g></g><g
         id="g3928"><path
           style="fill:#373535;fill-opacity:1;fill-rule:nonzero;stroke:none"
           d="m 290.71693,348.93126 c 16.86579,-18.70815 35.12267,-35.93796 53.44782,-52.05712 -0.50852,-1.2763 -0.95171,-2.58589 -1.31558,-3.94389 -5.00029,-18.66134 5.99001,-38.02086 24.38952,-42.95099 9.62338,-2.57858 19.48175,-0.71846 27.39793,4.30561 6.80424,-5.64996 13.49139,-11.21563 19.86519,-16.65914 l 18.78594,24.80816 -23.08754,14.00262 c 4.06414,18.20081 -6.83332,36.69391 -24.7536,41.49563 -11.38371,3.05026 -23.0613,-0.10607 -31.5065,-7.3717 l -63.22318,38.37082 z m 69.81515,-60.71325 c 2.38939,8.91732 11.22291,14.07489 20.01511,11.71903 0.025,-0.007 0.0475,-0.0127 0.0724,-0.0194 0.55706,-0.15175 1.09035,-0.33365 1.6162,-0.53659 0.22691,-0.0876 0.46003,-0.16343 0.68089,-0.26005 0.094,-0.0404 0.18392,-0.0839 0.27684,-0.12594 0.40632,-0.18383 0.79993,-0.3887 1.18453,-0.60209 0.0296,-0.0164 0.0607,-0.0335 0.0901,-0.05 0.20446,-0.11682 0.40229,-0.243 0.60023,-0.36789 0.0291,-0.0181 0.0611,-0.0318 0.0901,-0.05 0.19641,-0.12576 0.37983,-0.25214 0.56961,-0.38557 0.0285,-0.0198 0.0618,-0.0301 0.0901,-0.05 3.44589,-2.4227 5.77009,-6.08803 6.55334,-10.21935 l -0.0901,0.05 c 0.45999,-2.41192 0.40445,-4.96227 -0.28439,-7.53308 -1.78467,-6.66049 -7.15911,-11.25507 -13.43074,-12.16332 0.0201,-0.0167 0.0459,-0.0269 0.0659,-0.0435 -2.11836,-0.30375 -4.34929,-0.18047 -6.56668,0.41367 -0.58331,0.1563 -1.13931,0.34396 -1.68864,0.556 -0.10197,0.0393 -0.20024,0.0912 -0.30098,0.13241 -0.12449,0.05 -0.2508,0.0991 -0.37343,0.15183 -0.18856,0.0812 -0.3696,0.16429 -0.55368,0.25188 -0.0919,0.0444 -0.18609,0.08 -0.27683,0.12594 -0.45641,0.22765 -0.90077,0.47841 -1.32769,0.74398 -0.0291,0.0184 -0.0611,0.0315 -0.0901,0.05 -0.42512,0.26823 -0.82243,0.56604 -1.21642,0.86945 -5.07359,3.90718 -7.50728,10.61949 -5.70579,17.34271 z"
           id="path38"
           inkscape:connector-curvature="0" /><path
           sodipodi:nodetypes="cccc"
           inkscape:connector-curvature="0"
           id="path30"
           style="fill:#96989b;fill-opacity:1;fill-rule:nonzero;stroke:none"
           d="m 538.17282,344.13865 -17.851,0 0,-95.238 17.851,0" /><path
           inkscape:connector-curvature="0"
           id="path42"
           style="fill:#96989b;fill-opacity:1;fill-rule:nonzero;stroke:none"
           d="m 486.84182,316.51515 c -7.911,0 -15.319,-3.132 -20.729,-8.682 -5.396,5.55 -12.75,8.682 -20.578,8.682 -15.951,0 -28.93,-12.978 -28.93,-28.929 l 0,-38.686 16.708,0 0,38.686 c 0,6.824 5.483,12.376 12.222,12.376 6.71,0 12.378,-5.669 12.378,-12.376 l 0,-38.686 16.553,0 0,38.686 c 0,6.824 5.55,12.376 12.376,12.376 6.739,0 12.224,-5.552 12.224,-12.376 l 0,-38.686 16.552,0 0,38.686 c 0,15.951 -12.91,28.929 -28.776,28.929" /></g></g></g></svg>