<?xml version="1.0" encoding="UTF-8" standalone="no"?>
<!-- Created with Inkscape (http://www.inkscape.org/) -->

<svg
   xmlns:dc="http://purl.org/dc/elements/1.1/"
   xmlns:cc="http://creativecommons.org/ns#"
   xmlns:rdf="http://www.w3.org/1999/02/22-rdf-syntax-ns#"
   xmlns:svg="http://www.w3.org/2000/svg"
   xmlns="http://www.w3.org/2000/svg"
   xmlns:sodipodi="http://sodipodi.sourceforge.net/DTD/sodipodi-0.dtd"
   xmlns:inkscape="http://www.inkscape.org/namespaces/inkscape"
   id="svg2"
   version="1.1"
   inkscape:version="0.48.3.1 r9886"
   width="272.32999"
   height="272.32999"
   xml:space="preserve"
   sodipodi:docname="oml_favicon.svg"
   inkscape:export-filename="/home/omehani/nicta/OML/oml/logo/oml_favicon.png"
   inkscape:export-xdpi="5.29"
   inkscape:export-ydpi="5.29"><title
     id="title3029">OML favicon</title><metadata
     id="metadata8"><rdf:RDF><cc:Work
         rdf:about=""><dc:format>image/svg+xml</dc:format><dc:type
           rdf:resource="http://purl.org/dc/dcmitype/StillImage" /><dc:title>OML favicon</dc:title><cc:license
           rdf:resource="" /><dc:date>2012-09-10</dc:date><dc:creator><cc:Agent><dc:title>Olivier Mehani5</dc:title></cc:Agent></dc:creator><dc:rights><cc:Agent><dc:title>Maximilian Ott</dc:title></cc:Agent></dc:rights><dc:contributor><cc:Agent><dc:title>Wilson Rodrigues Verneque Neto
Olivier Mehani</dc:title></cc:Agent></dc:contributor></cc:Work></rdf:RDF></metadata><defs
     id="defs6"><clipPath
       clipPathUnits="userSpaceOnUse"
       id="clipPath16"><path
         d="M 0,500 500,500 500,0 0,0 0,500 z"
         id="path18"
         inkscape:connector-curvature="0" /></clipPath></defs><sodipodi:namedview
     pagecolor="#ffffff"
     bordercolor="#666666"
     borderopacity="1"
     objecttolerance="10"
     gridtolerance="10"
     guidetolerance="10"
     inkscape:pageopacity="0"
     inkscape:pageshadow="2"
     inkscape:window-width="1914"
     inkscape:window-height="1181"
     id="namedview4"
     showgrid="false"
     inkscape:zoom="3.9065998"
     inkscape:cx="92.905814"
     inkscape:cy="158.06584"
     inkscape:window-x="1366"
     inkscape:window-y="0"
     inkscape:window-maximized="0"
     inkscape:current-layer="g10"
     showguides="true"
     inkscape:guide-bbox="true"
     fit-margin-top="0"
     fit-margin-left="0"
     fit-margin-right="0"
     fit-margin-bottom="0"><sodipodi:guide
       orientation="1,0"
       position="-184.49458,135.96664"
       id="guide3065" /></sodipodi:namedview><g
     id="g10"
     inkscape:groupmode="layer"
     inkscape:label="mehua_ok"
     transform="matrix(1.25,0,0,-1.25,-337.06442,508.62721)"><path
       style="fill:#96989b;fill-opacity:1;fill-rule:nonzero;stroke:none"
       d="m 36.25,205.875 -17.90625,9.96875 c 0.160909,0.28991 0.305881,0.58619 0.46875,0.875 L 36.6875,206.75 c -0.160326,-0.28395 -0.27938,-0.58981 -0.4375,-0.875 z"
       id="path4089"
       transform="matrix(0.8,0,0,-0.8,269.65154,392.7955)"
       inkscape:connector-curvature="0" /><g
       id="g4100"><g
         id="g4093"><path
           style="fill:#96989b;fill-opacity:1;fill-rule:nonzero;stroke:none"
           d="M 138.9375,0.1875 C 77.313909,2.9544139 21.762668,45.105496 4.96875,107.78125 -5.1703338,145.62083 0.68646058,184.0308 18.34375,215.84375 L 36.25,205.875 C 21.100121,178.55047 16.043971,145.5851 24.75,113.09375 39.768625,57.043487 90.86875,20.091438 146.375,20.53125 c 1.75021,-6.763725 3.37001,-13.537525 4.9375,-20.34375 -4.15259,-0.17114766 -8.26676,-0.18446093 -12.375,0 z"
           id="path22"
           transform="matrix(0.8,0,0,-0.8,269.65154,392.7955)"
           inkscape:connector-curvature="0" /><path
           inkscape:connector-curvature="0"
           id="path48"
           style="fill:#006fb7;fill-opacity:1;fill-rule:nonzero;stroke:none"
           d="m 487.51703,333.02516 -14.31517,-7.96848 c -1.01012,1.81322 -2.08571,3.61396 -3.19925,5.35033 l 13.79452,8.842 c 1.29337,-2.01956 2.54568,-4.11508 3.7199,-6.22385" /><path
           inkscape:connector-curvature="0"
           id="path52"
           style="fill:#006fb7;fill-opacity:1;fill-rule:nonzero;stroke:none"
           d="m 480.2088,343.79132 -13.53679,-9.22475 c -3.34382,4.90353 -7.13887,9.52939 -11.28355,13.74681 l 11.69,11.48164 c 4.82285,-4.91264 9.24144,-10.29465 13.13034,-16.0037" /><path
           inkscape:connector-curvature="0"
           id="path56"
           style="fill:#006fb7;fill-opacity:1;fill-rule:nonzero;stroke:none"
           d="m 412.53964,372.75717 c 1.20868,-0.33422 2.40258,-0.69657 3.59215,-1.07122 l 5.25364,15.51906 c -1.48216,0.47272 -2.97309,0.92812 -4.48166,1.34476 l -0.88981,0.24153 c -16.95296,4.54253 -34.23553,5.2238 -51.3682,2.02507 l 3.00787,-16.1063 c 14.70688,2.74615 29.55007,2.16049 44.1201,-1.74353 l 0.76591,-0.20937 z" /><path
           inkscape:connector-curvature="0"
           id="path60"
           style="fill:#006fb7;fill-opacity:1;fill-rule:nonzero;stroke:none"
           d="m 421.26223,369.91454 c 11.07967,-4.16453 21.20665,-10.19611 30.18683,-18.01166 l 10.75631,12.35919 c -10.29341,8.95735 -21.87381,15.90118 -34.52854,20.74036 l -6.4146,-15.08789 z" /></g><path
         inkscape:connector-curvature="0"
         id="path38"
         d="m 290.71693,348.93126 c 16.86579,-18.70815 35.12267,-35.93796 53.44782,-52.05712 -0.50852,-1.2763 -0.95171,-2.58589 -1.31558,-3.94389 -5.00029,-18.66134 5.99001,-38.02086 24.38952,-42.95099 9.62338,-2.57858 19.48175,-0.71846 27.39793,4.30561 6.80424,-5.64996 13.49139,-11.21563 19.86519,-16.65914 l 18.78594,24.80816 -23.08754,14.00262 c 4.06414,18.20081 -6.83332,36.69391 -24.7536,41.49563 -11.38371,3.05026 -23.0613,-0.10607 -31.5065,-7.3717 l -63.22318,38.37082 z m 69.81515,-60.71325 c 2.38939,8.91732 11.22291,14.07489 20.01511,11.71903 0.025,-0.007 0.0475,-0.0127 0.0724,-0.0194 0.55706,-0.15175 1.09035,-0.33365 1.6162,-0.53659 0.22691,-0.0876 0.46003,-0.16343 0.68089,-0.26005 0.094,-0.0404 0.18392,-0.0839 0.27684,-0.12594 0.40632,-0.18383 0.79993,-0.3887 1.18453,-0.60209 0.0296,-0.0164 0.0607,-0.0335 0.0901,-0.05 0.20446,-0.11682 0.40229,-0.243 0.60023,-0.36789 0.0291,-0.0181 0.0611,-0.0318 0.0901,-0.05 0.19641,-0.12576 0.37983,-0.25214 0.56961,-0.38557 0.0285,-0.0198 0.0618,-0.0301 0.0901,-0.05 3.44589,-2.4227 5.77009,-6.08803 6.55334,-10.21935 l -0.0901,0.05 c 0.45999,-2.41192 0.40445,-4.96227 -0.28439,-7.53308 -1.78467,-6.66049 -7.15911,-11.25507 -13.43074,-12.16332 0.0201,-0.0167 0.0459,-0.0269 0.0659,-0.0435 -2.11836,-0.30375 -4.34929,-0.18047 -6.56668,0.41367 -0.58331,0.1563 -1.13931,0.34396 -1.68864,0.556 -0.10197,0.0393 -0.20024,0.0912 -0.30098,0.13241 -0.12449,0.05 -0.2508,0.0991 -0.37343,0.15183 -0.18856,0.0812 -0.3696,0.16429 -0.55368,0.25188 -0.0919,0.0444 -0.18609,0.08 -0.27683,0.12594 -0.45641,0.22765 -0.90077,0.47841 -1.32769,0.74398 -0.0291,0.0184 -0.0611,0.0315 -0.0901,0.05 -0.42512,0.26823 -0.82243,0.56604 -1.21642,0.86945 -5.07359,3.90718 -7.50728,10.61949 -5.70579,17.34271 z"
         style="fill:#373535;fill-opacity:1;fill-rule:nonzero;stroke:none" /></g></g></svg>